<svg width="500" height="500" viewBox="0 0 500 500" fill="none" xmlns="http://www.w3.org/2000/svg">
<ellipse cx="250" cy="272" rx="124" ry="166" fill="#F7F7F7"/>
<path d="M218.784 71.2325C239.702 66.8506 261.298 66.8506 282.216 71.2325L319.335 34L350.544 65.285L327.386 88.5001C354.654 104.238 376.5 127.919 390.023 156.399L449 156.399V200.618H403.345C404.36 207.848 404.889 215.21 404.889 222.727V244.837H449V289.056H404.889V311.166C404.889 318.683 404.36 326.045 403.345 333.275H449V377.494H390.023C377.51 403.973 357.755 426.347 333.056 442.015C308.357 457.683 279.729 466 250.5 466C221.271 466 192.643 457.683 167.944 442.015C143.245 426.347 123.49 403.973 110.977 377.494H52L52 333.275H97.655C96.6184 325.951 96.1025 318.563 96.1111 311.166V289.056H52V244.837H96.1111L96.1111 222.727C96.1111 215.21 96.6404 207.848 97.655 200.618H52V156.399H110.977C124.496 127.911 146.343 104.221 173.614 88.478L150.456 65.2629L181.687 34.0221L218.806 71.2546L218.784 71.2325ZM250.5 112.179C221.253 112.179 193.203 123.826 172.522 144.558C151.841 165.29 140.222 193.408 140.222 222.727V311.166C140.222 340.485 151.841 368.603 172.522 389.335C193.203 410.066 221.253 421.713 250.5 421.713C279.747 421.713 307.797 410.066 328.478 389.335C349.159 368.603 360.778 340.485 360.778 311.166V222.727C360.778 193.408 349.159 165.29 328.478 144.558C307.797 123.826 279.747 112.179 250.5 112.179Z" fill="#FFB803"/>
<path d="M219.586 77.3072C239.842 73.0685 260.755 73.0685 281.011 77.3072L316.957 41.2922L347.178 71.5542L324.752 94.0101C351.158 109.233 372.313 132.14 385.409 159.688L442.52 159.688V202.461H398.309C399.292 209.455 399.804 216.576 399.804 223.848V245.234H442.52V288.008H399.804V309.394C399.804 316.666 399.292 323.787 398.309 330.781H442.52V373.554H385.409C373.291 399.167 354.161 420.809 330.243 435.965C306.325 451.12 278.603 459.165 250.298 459.165C221.994 459.165 194.272 451.12 170.354 435.965C146.436 420.809 127.306 399.167 115.188 373.554H58.0769L58.0769 330.781H102.288C101.284 323.696 100.784 316.549 100.793 309.394V288.008H58.0769V245.234H100.793L100.793 223.848C100.793 216.576 101.305 209.455 102.288 202.461H58.0769V159.688H115.188C128.28 132.132 149.436 109.217 175.845 93.9887L153.419 71.5328L183.662 41.3136L219.607 77.3286L219.586 77.3072ZM250.298 116.915C221.976 116.915 194.814 128.181 174.787 148.235C154.76 168.289 143.509 195.488 143.509 223.848V309.394C143.509 337.754 154.76 364.953 174.787 385.007C194.814 405.061 221.976 416.327 250.298 416.327C278.621 416.327 305.783 405.061 325.81 385.007C345.837 364.953 357.088 337.754 357.088 309.394V223.848C357.088 195.488 345.837 168.289 325.81 148.235C305.783 128.181 278.621 116.915 250.298 116.915Z" fill="#FFD803"/>
<path d="M202.66 318.5C193.86 318.5 186.06 316.6 179.26 312.8C172.56 308.9 167.26 303.2 163.36 295.7C159.46 288.2 157.51 278.9 157.51 267.8C157.51 257 159.51 247.8 163.51 240.2C167.61 232.5 173.41 226.65 180.91 222.65C188.51 218.55 197.56 216.5 208.06 216.5C219.86 216.5 229.31 218.6 236.41 222.8C243.51 227 249.01 233.65 252.91 242.75L224.41 253.4C223.41 248.5 221.51 245.05 218.71 243.05C215.91 240.95 212.41 239.9 208.21 239.9C195.41 239.9 189.01 249.1 189.01 267.5C189.01 277.4 190.76 284.6 194.26 289.1C197.76 293.6 203.11 295.85 210.31 295.85C215.11 295.85 219.06 294.75 222.16 292.55C225.36 290.35 226.96 287.05 226.96 282.65V281.9H207.46V262.25H252.76V317H232.21L231.01 305.15C225.51 314.05 216.06 318.5 202.66 318.5ZM300.112 294.05H347.212V317H269.512V218H300.112V294.05Z" fill="#6258A8"/>
<path d="M200.614 314.44C192.166 314.44 184.678 312.616 178.15 308.968C171.718 305.224 166.63 299.752 162.886 292.552C159.142 285.352 157.27 276.424 157.27 265.768C157.27 255.4 159.19 246.568 163.03 239.272C166.966 231.88 172.534 226.264 179.734 222.424C187.03 218.488 195.718 216.52 205.798 216.52C217.126 216.52 226.198 218.536 233.014 222.568C239.83 226.6 245.11 232.984 248.854 241.72L221.494 251.944C220.534 247.24 218.71 243.928 216.022 242.008C213.334 239.992 209.974 238.984 205.942 238.984C193.654 238.984 187.51 247.816 187.51 265.48C187.51 274.984 189.19 281.896 192.55 286.216C195.91 290.536 201.046 292.696 207.958 292.696C212.566 292.696 216.358 291.64 219.334 289.528C222.406 287.416 223.942 284.248 223.942 280.024V279.304H205.222V260.44H248.71V313H228.982L227.83 301.624C222.55 310.168 213.478 314.44 200.614 314.44ZM294.168 290.968H339.384V313H264.792V217.96H294.168V290.968Z" fill="#272343"/>
</svg>
