<?xml version="1.0" standalone="no"?>
<!DOCTYPE svg PUBLIC "-//W3C//DTD SVG 20010904//EN"
 "http://www.w3.org/TR/2001/REC-SVG-20010904/DTD/svg10.dtd">
<svg version="1.0" xmlns="http://www.w3.org/2000/svg"
 width="500.000000pt" height="500.000000pt" viewBox="0 0 500.000000 500.000000"
 preserveAspectRatio="xMidYMid meet">
<metadata>
Created by potrace 1.11, written by Peter Selinger 2001-2013
</metadata>
<g transform="translate(0.000000,500.000000) scale(0.100000,-0.100000)"
fill="#013355" stroke="none">
<path d="M1672 4437 c-78 -78 -142 -147 -142 -152 0 -5 48 -58 107 -117 59
-59 105 -109 102 -111 -2 -2 -33 -23 -69 -47 -206 -136 -377 -323 -490 -532
l-42 -78 -284 0 -284 0 2 -212 3 -213 219 -3 219 -2 -7 -47 c-3 -25 -6 -119
-6 -209 l0 -164 -215 0 -215 0 0 -215 0 -215 215 0 215 0 0 -169 c0 -92 3
-189 6 -215 l7 -46 -222 0 -221 0 2 -212 3 -213 286 -3 286 -2 19 -43 c35 -79
156 -248 242 -339 139 -145 270 -240 452 -327 429 -204 955 -185 1365 50 251
144 462 359 585 596 l32 63 286 2 287 3 3 213 2 212 -221 0 -222 0 6 83 c4 45
7 142 7 215 l0 132 215 0 215 0 -2 213 -3 212 -212 3 -213 2 -1 143 c0 78 -3
172 -8 209 l-7 68 221 2 220 3 3 213 2 212 -288 0 -289 0 -23 51 c-92 196
-307 434 -514 567 l-68 44 111 112 111 111 -150 150 -150 150 -179 -179 -178
-178 -74 13 c-42 8 -143 14 -234 14 -91 0 -192 -6 -234 -14 l-74 -13 -176 176
c-97 97 -181 176 -186 176 -6 0 -74 -64 -153 -143z m993 -622 c221 -36 417
-137 579 -298 126 -125 216 -273 269 -442 45 -144 49 -218 45 -800 -4 -528 -5
-542 -27 -625 -56 -204 -142 -353 -290 -501 -141 -140 -298 -230 -489 -280
-100 -27 -313 -36 -419 -19 -284 45 -544 205 -708 434 -60 85 -138 251 -167
356 -23 85 -23 88 -23 700 l0 615 28 90 c101 326 320 575 619 701 76 33 198
67 273 77 71 10 227 6 310 -8z"/>
<path d="M2015 2870 c-137 -15 -247 -72 -317 -165 -128 -168 -128 -482 0 -650
80 -106 187 -156 334 -156 112 0 177 21 233 75 40 38 45 40 45 21 0 -13 3 -37
6 -54 l7 -31 98 0 99 0 -2 263 -3 262 -215 0 -215 0 -3 -92 -3 -93 96 0 c90 0
95 -1 95 -21 0 -65 -70 -114 -165 -113 -93 1 -150 40 -180 123 -18 51 -20 216
-4 276 31 115 145 168 248 115 35 -18 71 -68 71 -100 0 -8 7 -10 18 -5 9 3 72
27 140 52 l122 45 -27 50 c-32 60 -93 123 -143 148 -84 43 -218 63 -335 50z"/>
<path d="M2680 2385 l0 -475 370 0 370 0 0 110 0 110 -225 0 -225 0 0 365 0
365 -145 0 -145 0 0 -475z"/>
</g>
</svg>
